<?xml version="1.0" encoding="utf-8"?>
<?xml-stylesheet type="text/xsl" href="rss1.xsl"?>
<rss version="2.0" xmlns:atom="http://www.w3.org/2005/Atom" xmlns:content="http://purl.org/rss/1.0/modules/content/" xmlns:dc="http://purl.org/dc/elements/1.1/" xmlns:media="http://search.yahoo.com/mrss/">
<channel>
 <title>Getty</title>
 <link>http://www.gettyimg.com/</link>
 <atom:link href="http://www.gettyimg.com/" rel="self" type="application/rss+xml" />

 
                <item>
                <title><![CDATA[【Apple Music】WEB-RiP - Cleo - Za Krokiem Krok (1080p)]]></title>
                <link><![CDATA[https://sharemania.us/threads/cleo-za-krokiem-krok-1080p.248998/]]></link>
                <description><![CDATA[<article>
<blockquote class="messageText SelectQuoteContainer ugc baseHtml">
<img src="https://i.postimg.cc/vHwVPcGg/Cleo-Za-Krokiem-Krok-mp4.jpg" class="bbCodeImage LbImage" alt="[​IMG]" data-url="https://i.postimg.cc/vHwVPcGg/Cleo-Za-Krokiem-Krok-mp4.jpg" style=""><br>
<br>
<div class="bbCodeBlock bbCodeCode">
<div class="type">Code:</div>
<pre>General
Complete name                  : G:\Новая папка\Cleo - Za Krokiem Krok.mp4
Format                         : MPEG-4
Format profile                 : Base Media
Codec ID                       : isom (isom/iso2/avc1/mp41)
File size                      : 162 MiB
Duration                       : 3 min 28 s
Overall bit rate               : 6 535 kb/s
Frame rate                     : 25.000 FPS
Movie name                     : Za Krokiem Krok
Performer                      : Cleo
Genre                          : Pop
ContentType                    : Music Video
Recorded date                  : 2019-05-24 07:00:00 UTC
Writing application            : Lavf56.30.100
Copyright                      : ℗ 2019 SLAVICA, under exclusive license for Universal Music Polska

Video
ID                             : 1
Format                         : AVC
Format/Info                    : Advanced Video Codec
Format profile                 : High@L4.1
Format settings                : CABAC / 4 Ref Frames
Format settings, CABAC         : Yes
Format settings, Reference fra : 4 frames
Format settings, Slice count   : 8 slices per frame
Codec ID                       : avc1
Codec ID/Info                  : Advanced Video Coding
Duration                       : 3 min 28 s
Bit rate                       : 6 273 kb/s
Width                          : 1 920 pixels
Height                         : 1 042 pixels
Display aspect ratio           : 1.85:1
Frame rate mode                : Constant
Frame rate                     : 25.000 FPS
Color space                    : YUV
Chroma subsampling             : 4:2:0
Bit depth                      : 8 bits
Scan type                      : Progressive
Bits/(Pixel*Frame)             : 0.125
Stream size                    : 156 MiB (96%)
Color range                    : Limited
Color primaries                : BT.709
Transfer characteristics       : BT.709
Matrix coefficients            : BT.709
Codec configuration box        : avcC

Audio
ID                             : 2
Format                         : AAC LC
Format/Info                    : Advanced Audio Codec Low Complexity
Codec ID                       : mp4a-40-2
Duration                       : 3 min 28 s
Duration_LastFrame             : -20 ms
Bit rate mode                  : Constant
Bit rate                       : 258 kb/s
Channel(s)                     : 2 channels
Channel layout                 : L R
Sampling rate                  : 48.0 kHz
Frame rate                     : 46.875 FPS (1024 SPF)
Compression mode               : Lossy
Stream size                    : 6.40 MiB (4%)
Default                        : Yes
Alternate group                : 1

</pre>
</div>
<div class="bbCodeBlock bbCodeVfcHH HiddenContent">
<div class="attribution type">Hidden Content:</div>
<blockquote>You must either reply or click 'Like' to see the hidden information contained here.</blockquote>
</div>
<div class="messageTextEndMarker">&nbsp;</div>
</blockquote>
</article>]]></description>
                <author><![CDATA[vitalya3]]></author>
                </item>

                
                <item>
                <title><![CDATA[【Singles (lossless)】ALAC - Pia Mia &amp; Bella Thorne - Bubblegum Boy (24 Bit / 41.1khz)]]></title>
                <link><![CDATA[https://sharemania.us/threads/pia-mia-bella-thorne-bubblegum-boy-24-bit-41-1khz.248997/]]></link>
                <description><![CDATA[<article>
<blockquote class="messageText SelectQuoteContainer ugc baseHtml">
<div style="text-align: center"><img src="https://s7.krakenfiles.com/uploads/06-07-2024/kQBqSnVT5v/cover.png" class="bbCodeImage LbImage" alt="[​IMG]" data-url="https://s7.krakenfiles.com/uploads/06-07-2024/kQBqSnVT5v/cover.png" style=""><br>
<div class="bbCodeBlock bbCodeVfcHH HiddenContent">
<div class="attribution type">Hidden Content:</div>
<blockquote>You must either reply or click 'Like' to see the hidden information contained here.</blockquote>
</div>
<div class="bbCodeBlock bbCodeVfcHH HiddenContent">
<div class="attribution type">Hidden Content:</div>
<blockquote>You must reply before you can see the hidden data contained here.</blockquote>
</div><br>
​</div>
<div class="messageTextEndMarker">&nbsp;</div>
</blockquote>
</article>]]></description>
                <author><![CDATA[ifuseekme]]></author>
                </item>

                
                <item>
                <title><![CDATA[【Singles (lossless)】ALAC - Vanessa Hudgens vs YLA - $$$ex (24 bit/44.1Khz)]]></title>
                <link><![CDATA[https://sharemania.us/threads/vanessa-hudgens-vs-yla-ex-24-bit-44-1khz.248996/]]></link>
                <description><![CDATA[<article>
<blockquote class="messageText SelectQuoteContainer ugc baseHtml">
<div style="text-align: center"><img src="https://i.scdn.co/image/ab67616d0000b2730a452f78e86743f625fbf5bd" class="bbCodeImage LbImage" alt="[​IMG]" data-url="https://i.scdn.co/image/ab67616d0000b2730a452f78e86743f625fbf5bd" style="">​</div><ol>
<li><div style="text-align: center">$$$ex​</div></li>
<li><div style="text-align: center">$$$ex (Clean Version)​</div></li>
</ol><div style="text-align: center">
<div class="bbCodeBlock bbCodeVfcHH HiddenContent">
<div class="attribution type">Hidden Content:</div>
<blockquote>You must reply before you can see the hidden data contained here.</blockquote>
</div></div>
<div class="messageTextEndMarker">&nbsp;</div>
</blockquote>
</article>]]></description>
                <author><![CDATA[ifuseekme]]></author>
                </item>

                
                <item>
                <title><![CDATA[【Instrumentals / Karaoke (lossless)】ALAC - Camila Cabello - Bam Bam (feat. Ed Sheeran) [Karaoke Version] (24 Bit)]]></title>
                <link><![CDATA[https://sharemania.us/threads/camila-cabello-bam-bam-feat-ed-sheeran-karaoke-version-24-bit.248999/]]></link>
                <description><![CDATA[<article>
<blockquote class="messageText SelectQuoteContainer ugc baseHtml">
<div style="text-align: center"><img src="https://s1.krakenfiles.com/uploads/06-07-2024/svtf3HrKln/cover.png" class="bbCodeImage LbImage" alt="[​IMG]" data-url="https://s1.krakenfiles.com/uploads/06-07-2024/svtf3HrKln/cover.png" style=""><br>
<div class="bbCodeBlock bbCodeVfcHH HiddenContent">
<div class="attribution type">Hidden Content:</div>
<blockquote>You must either reply or click 'Like' to see the hidden information contained here.</blockquote>
</div>
<div class="bbCodeBlock bbCodeVfcHH HiddenContent">
<div class="attribution type">Hidden Content:</div>
<blockquote>You must reply before you can see the hidden data contained here.</blockquote>
</div></div>
<div class="messageTextEndMarker">&nbsp;</div>
</blockquote>
</article>]]></description>
                <author><![CDATA[ifuseekme]]></author>
                </item>

                </channel></rss>